<?xml version="1.0" ?><!DOCTYPE svg  PUBLIC '-//W3C//DTD SVG 1.1//EN'  'http://www.w3.org/Graphics/SVG/1.1/DTD/svg11.dtd'><svg enable-background="new 0 0 64 64" height="64px" id="Layer_1" version="1.1" viewBox="0 0 64 64" width="64px" xml:space="preserve" xmlns="http://www.w3.org/2000/svg" xmlns:xlink="http://www.w3.org/1999/xlink"><path d="M44.976,44.444c-0.348-0.53-0.677-1.031-0.94-1.563c-0.153-0.31-0.295-0.579-0.426-0.826  c-0.648-1.234-0.945-1.797-1.021-4.306c0,0,0,0,0-0.001c-0.001-2.185-0.109-3.301-0.216-4.379c-0.106-1.094-0.208-2.128-0.208-4.256  c0-2.12,0.124-3.149,0.255-4.24c0.131-1.086,0.266-2.209,0.266-4.419c0-2.349-0.65-3.585-1.225-4.675  c-0.542-1.028-1.053-2-1.053-3.977c0-0.559,0.051-1.158,0.104-1.791c0.161-1.904,0.345-4.063-1.022-5.431  c-1.553-1.552-4.611-3.202-7.222-3.202c-2.58,0-5.361,1.867-6.959,3.465c-1.602,1.602-3.219,4.375-3.219,6.958  c0,2.218,0.163,3.346,0.321,4.437c0.157,1.085,0.305,2.111,0.305,4.222c0,2.176,0.033,3.264,0.066,4.352  c0.032,1.077,0.065,2.153,0.065,4.307c0,2.243,0.244,3.382,0.48,4.483c0.221,1.03,0.428,2.017,0.444,3.94  c-1.671,2.49-2.518,2.889-3.135,3.169c-0.514,0.234-1.044,0.476-1.54,1.475c-1.149,2.314-1.731,4.508-1.731,6.521  c0,2.949,1.569,6.1,2.504,7.715c1.314,2.271,3.451,3.717,5.565,4.94c2.156,1.247,4.16,1.259,6.758,1.259  c2.746,0.024,5.192-0.089,7.341-1.332c2.603-1.507,4.484-3.242,5.594-5.157c1.336-2.312,1.508-5.182,1.508-7.425  C46.635,46.974,45.791,45.688,44.976,44.444z M43.828,55.38c-0.976,1.686-2.674,3.237-5.047,4.61  c-1.811,1.048-3.93,1.131-6.586,1.131c-2.47-0.013-4.182,0-6.01-1.058c-1.933-1.119-3.879-2.426-5.018-4.394  c-0.86-1.485-2.302-4.364-2.302-6.963c0-1.779,0.53-3.748,1.575-5.854c0.259-0.521,0.399-0.586,0.818-0.776  c0.754-0.343,1.894-0.861,3.892-3.893c0.013-0.02,0.014-0.042,0.025-0.062c0.024-0.045,0.042-0.09,0.056-0.14  c0.015-0.049,0.025-0.097,0.03-0.146c0.002-0.022,0.013-0.042,0.013-0.065c0-1.738-0.147-2.812-0.323-3.721  c0.52,0.018,0.758,0.063,0.992,0.113c0.356,0.076,0.723,0.155,1.74,0.155c0.414,0,0.75-0.336,0.75-0.75s-0.336-0.75-0.75-0.75  c-0.857,0-1.133-0.059-1.425-0.121c-0.34-0.073-0.698-0.147-1.617-0.154c-0.161-0.831-0.286-1.78-0.292-3.319l3.334,0.004  c0.414,0,0.75-0.336,0.75-0.75s-0.336-0.75-0.75-0.75l-3.341-0.004c-0.01-1.302-0.035-2.131-0.061-2.957  c-0.007-0.226-0.014-0.453-0.02-0.688c0.662,0.013,1.054,0.062,1.447,0.115c0.485,0.066,0.987,0.134,1.975,0.134  c0.414,0,0.75-0.336,0.75-0.75s-0.336-0.75-0.75-0.75c-0.886,0-1.317-0.059-1.773-0.121c-0.431-0.059-0.895-0.116-1.68-0.129  c-0.008-0.583-0.014-1.264-0.014-2.119c0-0.515-0.01-0.967-0.025-1.377c0.724,0.007,1.137,0.04,1.552,0.076  c0.477,0.042,0.97,0.085,1.94,0.085c0.414,0,0.75-0.336,0.75-0.75s-0.336-0.75-0.75-0.75c-0.905,0-1.344-0.039-1.81-0.079  c-0.448-0.04-0.925-0.078-1.783-0.083c-0.057-0.585-0.127-1.078-0.196-1.558c-0.157-1.085-0.305-2.111-0.305-4.222  c0-2.143,1.441-4.559,2.779-5.898c1.505-1.506,3.913-3.025,5.898-3.025c2.127,0,4.803,1.404,6.161,2.762  c0.874,0.875,0.729,2.587,0.589,4.243c-0.055,0.637-0.11,1.295-0.11,1.918c0,2.349,0.65,3.585,1.225,4.675  c0.243,0.461,0.477,0.915,0.664,1.449c-0.595-0.006-0.971-0.02-1.336-0.035c-0.477-0.019-0.953-0.038-1.905-0.038  c-0.414,0-0.75,0.336-0.75,0.75s0.336,0.75,0.75,0.75c0.923,0,1.384,0.019,1.845,0.037c0.443,0.018,0.902,0.035,1.728,0.037  c0.034,0.313,0.058,0.646,0.058,1.026c0,0.898-0.023,1.594-0.059,2.188c-0.862,0.008-1.347,0.07-1.799,0.133  c-0.456,0.063-0.887,0.123-1.772,0.123c-0.414,0-0.75,0.336-0.75,0.75s0.336,0.75,0.75,0.75c0.989,0,1.492-0.069,1.978-0.137  c0.396-0.055,0.791-0.104,1.462-0.117c-0.021,0.185-0.043,0.367-0.064,0.55c-0.104,0.856-0.208,1.744-0.248,3.161  c-0.497-0.019-0.822-0.06-1.157-0.102c-0.484-0.062-0.984-0.125-1.97-0.125c-0.414,0-0.75,0.336-0.75,0.75s0.336,0.75,0.75,0.75  c0.89,0,1.322,0.055,1.78,0.113c0.366,0.046,0.743,0.094,1.331,0.114c0.006,1.59,0.07,2.601,0.147,3.46  c-0.568-0.018-0.924-0.062-1.285-0.109c-0.485-0.064-0.986-0.131-1.974-0.131c-0.414,0-0.75,0.336-0.75,0.75s0.336,0.75,0.75,0.75  c0.888,0,1.319,0.057,1.776,0.117c0.421,0.056,0.873,0.11,1.624,0.125c0.074,0.857,0.133,1.842,0.133,3.453  c0,0.004,0.002,0.007,0.002,0.011s-0.002,0.008-0.002,0.012c0.087,2.855,0.503,3.647,1.193,4.959  c0.125,0.237,0.262,0.496,0.409,0.794c0.304,0.613,0.673,1.176,1.03,1.72c0.727,1.108,1.413,2.155,1.413,3.44  C45.135,50.763,44.986,53.379,43.828,55.38z"/><path d="M32.719,41.795c0.006-0.037,0.022-0.071,0.022-0.11c0-2.113,0.135-2.87,0.278-3.671c0.148-0.831,0.302-1.689,0.302-3.936  c0-2.215-0.103-3.341-0.201-4.43c-0.101-1.104-0.195-2.147-0.195-4.294c0-2.086,0.261-3.101,0.537-4.175  c0.288-1.118,0.585-2.273,0.585-4.549c0-0.414-0.336-0.75-0.75-0.75s-0.75,0.336-0.75,0.75c0,2.086-0.261,3.101-0.538,4.175  c-0.287,1.118-0.584,2.273-0.584,4.549c0,2.215,0.103,3.341,0.201,4.43c0.101,1.104,0.195,2.147,0.195,4.294  c0,2.113-0.135,2.87-0.278,3.671c-0.148,0.831-0.302,1.689-0.302,3.936c0,0.062,0.021,0.116,0.035,0.173  c-3.257,0.517-5.932,3.494-5.932,6.856c0,3.516,3.042,6.27,6.924,6.27c3.42,0,7.111-2.397,7.111-6.27  C39.38,45.228,36.259,42.049,32.719,41.795z M32.269,53.483c-2.666,0-5.424-1.784-5.424-4.77c0-2.849,2.585-5.443,5.424-5.443  c2.885,0,5.611,2.646,5.611,5.443C37.88,51.66,34.967,53.483,32.269,53.483z"/></svg>