<svg height="480pt" viewBox="-136 0 480 480" width="480pt" xmlns="http://www.w3.org/2000/svg"><path d="m104.019531 56c-8.835937 0-16 7.164062-16 16v258.800781c-22.039062 7.792969-35.261719 30.328125-31.308593 53.371094 3.953124 23.039063 23.933593 39.882813 47.308593 39.882813 23.378907 0 43.355469-16.84375 47.308594-39.882813 3.953125-23.042969-9.265625-45.578125-31.308594-53.371094v-258.800781c0-8.835938-7.164062-16-16-16zm0 0" fill="#9bc9ff"/><g fill="#1e81ce"><path d="m104.070312 480c-1.449218 0-2.890624 0-4.335937-.089844-54.570313-2.90625-97.863281-47.046875-99.7148438-101.664062-.7187502-36.257813 17.4609378-70.285156 47.9999998-89.847656v-232.398438c0-30.929688 25.074219-56 56-56 30.929688 0 56 25.070312 56 56v8.304688c0 4.417968-3.582031 8-8 8s-8-3.582032-8-8v-8.304688c0-22.089844-17.90625-40-40-40-22.089843 0-40 17.910156-40 40v236.878906c0 2.855469-1.527343 5.492188-4 6.921875-27.78125 16.09375-44.628906 46.003907-44 78.101563 1.558594 46.210937 38.183594 83.5625 84.351563 86.027344 23.949218.972656 47.257812-7.855469 64.550781-24.449219 17.292969-16.589844 27.078125-39.515625 27.097656-63.480469-.101562-31.410156-16.847656-60.410156-44-76.199219-2.472656-1.429687-3.996093-4.066406-4-6.921875v-20.734375c0-4.417969 3.582031-8 8-8s8 3.582031 8 8v16.253907c29.820313 19.171874 47.890625 52.152343 48 87.601562-.039062 57.402344-46.546875 103.933594-103.949219 104zm0 0"/><path d="m103.925781 432c-3.972656 0-7.929687-.410156-11.816406-1.222656-23.441406-5.078125-41.042969-24.519532-43.777344-48.347656-2.734375-23.828126 10.007813-46.75 31.6875-57.003907v-253.425781c0-13.253906 10.746094-24 24-24 13.253907 0 24 10.746094 24 24v253.433594c23.644531 11.246094 36.335938 37.378906 30.5625 62.917968-5.773437 25.539063-28.472656 43.664063-54.65625 43.648438zm.09375-368c-4.417969 0-8 3.582031-8 8v258.800781c0 3.402344-2.152343 6.433594-5.367187 7.550781-16.816406 5.964844-27.648438 22.34375-26.554688 40.15625 1.097656 17.808594 13.855469 32.738282 31.273438 36.597657 11.917968 2.546875 24.351562-.414063 33.839844-8.058594 11.242187-9.097656 16.6875-23.558594 14.234374-37.8125-2.449218-14.25-12.414062-26.0625-26.046874-30.882813-3.21875-1.117187-5.375-4.148437-5.378907-7.550781v-258.800781c0-4.417969-3.582031-8-8-8zm0 0"/><path d="m144.019531 240h32v16h-32zm0 0"/><path d="m144.019531 208h32v16h-32zm0 0"/><path d="m144.019531 176h32v16h-32zm0 0"/><path d="m144.019531 144h32v16h-32zm0 0"/><path d="m144.019531 112h32v16h-32zm0 0"/><path d="m144.019531 80h32v16h-32zm0 0"/></g></svg>