<?xml version="1.0" ?><!DOCTYPE svg  PUBLIC '-//W3C//DTD SVG 1.1//EN'  'http://www.w3.org/Graphics/SVG/1.1/DTD/svg11.dtd'><svg enable-background="new 0 0 800 800" height="800px" id="Layer_1" version="1.1" viewBox="0 0 800 800" width="800px" xml:space="preserve" xmlns="http://www.w3.org/2000/svg" xmlns:xlink="http://www.w3.org/1999/xlink"><g><path d="M345.714,431.681V77.083c0-29.061-23.64-52.717-52.699-52.717h-87.892   c-29.06,0-52.717,23.657-52.717,52.717v354.598c-55.07,33.641-88.891,93.473-88.891,158.419   c0,102.297,83.239,185.535,185.554,185.535c102.314,0,185.553-83.238,185.553-185.535   C434.622,525.153,400.804,465.321,345.714,431.681z M249.069,743.688c-84.701,0-153.605-68.905-153.605-153.588   c0-56.426,30.859-108.216,80.529-135.136c5.152-2.8,8.361-8.183,8.361-14.049V77.083c0-11.447,9.325-20.77,20.77-20.77h87.892   c11.446,0,20.751,9.323,20.751,20.77v363.833c0,5.866,3.209,11.249,8.362,14.049c49.687,26.92,80.547,78.693,80.547,135.136   C402.675,674.782,333.77,743.688,249.069,743.688z" fill="#4D4D4D"/><path d="M293.086,493.918V117.605c0-27.277-19.753-49.473-44.017-49.473s-44.018,22.196-44.018,49.473v375.011   c-39.292,16.83-64.947,55.16-64.947,98.803c0,59.331,48.26,107.591,107.592,107.591s107.61-48.26,107.61-107.591   C355.306,549.237,330.721,511.406,293.086,493.918z M296.509,649.11c-0.321-0.018-0.624-0.09-0.944-0.09h-92.991   c-1.159,0-2.3,0.143-3.388,0.375c-6.863-5.759-12.658-12.729-17.133-20.537h131.304C308.935,636.56,303.248,643.405,296.509,649.11   z M322.912,596.91H175.225c-0.98,0-1.943,0.106-2.888,0.285c-0.143-1.907-0.286-3.833-0.286-5.776   c0-5.081,0.642-10.02,1.604-14.851c0.517,0.053,1.034,0.161,1.569,0.161h146.528c0.945,4.795,1.605,9.661,1.605,14.689   c0,1.854-0.161,3.672-0.285,5.508C323.019,596.927,322.965,596.91,322.912,596.91z M236.999,492.67v-20.164h24.139v20.164H236.999z    M261.138,388.43h-24.139v-20.164h24.139V388.43z M236.999,420.377h24.139v20.182h-24.139V420.377z M261.138,336.319h-24.139   v-20.164h24.139V336.319z M249.069,100.08c6.436,0,12.069,8.184,12.069,17.525v166.602h-24.139V117.605   C236.999,108.263,242.651,100.08,249.069,100.08z M212.45,524.582c0.089,0.018,0.178,0.035,0.249,0.035h70.385   c9.449,4.992,17.471,11.981,23.925,20.164H188.168C194.658,536.509,202.876,529.609,212.45,524.582z" fill="#4D4D4D"/><path d="M706.41,337.442h14.102c8.825,0,15.973-7.15,15.973-15.974c0-8.807-7.147-15.974-15.973-15.974H706.41   h-27.508c-0.713-5.331-1.785-10.555-3.192-15.635l38.722-15.636c8.183-3.298,12.143-12.604,8.844-20.788   c-3.317-8.183-12.64-12.14-20.788-8.842l-39.347,15.885c-3.065-5.134-6.4-10.073-10.179-14.672l30.29-30.272   c6.239-6.24,6.221-16.366-0.018-22.606c-6.239-6.221-16.35-6.221-22.589,0.018l-31.128,31.146   c-4.063-2.888-8.289-5.563-12.712-7.916l17.437-41.058c3.458-8.112-0.338-17.489-8.45-20.948   c-8.13-3.441-17.507,0.338-20.949,8.469l-18.022,42.43c-5.261-1.176-10.644-1.997-16.134-2.46V169.77v-14.084   c0-8.825-7.149-15.973-15.975-15.973c-8.808,0-15.975,7.148-15.975,15.973v14.084v34.461c-4.366,0.803-8.683,1.819-12.871,3.103   l-18.397-45.587c-3.299-8.183-12.642-12.14-20.788-8.824c-8.183,3.298-12.143,12.604-8.844,20.787l19.006,47.102   c-4.084,2.603-8.06,5.349-11.785,8.415l-36.279-36.28c-6.239-6.239-16.35-6.239-22.589,0c-6.239,6.24-6.239,16.348,0,22.588   l37.153,37.153c-2.282,3.191-4.384,6.507-6.346,9.93l-48.635-20.68c-8.13-3.441-17.508,0.338-20.948,8.469   c-3.442,8.111,0.338,17.489,8.467,20.947l49.241,20.913c-1.106,4.332-1.962,8.736-2.566,13.229h-39.544h-14.084   c-8.825,0-15.974,7.167-15.974,15.974c0,8.824,7.148,15.974,15.974,15.974h14.084h39.544c0.516,3.815,1.194,7.576,2.051,11.267   l-49.617,20.021c-8.166,3.299-12.124,12.604-8.825,20.788c2.513,6.222,8.487,10.001,14.814,10.001c1.998,0,4.013-0.375,5.974-1.159   l48.974-19.789c2.228,4.065,4.74,7.934,7.415,11.695l-37.153,37.154c-6.239,6.239-6.239,16.349,0,22.588   c3.119,3.119,7.202,4.671,11.286,4.671c4.101,0,8.183-1.552,11.303-4.671l36.279-36.281c3.191,2.622,6.543,5.047,10.001,7.328   l-19.859,46.763c-3.458,8.13,0.32,17.508,8.45,20.948c2.032,0.873,4.155,1.283,6.239,1.283c6.205,0,12.124-3.654,14.708-9.733   l19.273-45.354c4.831,1.569,9.804,2.816,14.867,3.762v34.443v14.102c0,8.825,7.167,15.975,15.975,15.975   c8.825,0,15.975-7.149,15.975-15.975v-14.102v-32.821c4.74-0.41,9.447-0.979,14.011-1.926l17.275,42.77   c2.498,6.222,8.487,10.001,14.814,10.001c1.998,0,4.013-0.373,5.974-1.158c8.183-3.299,12.141-12.604,8.844-20.788l-16.758-41.503   c5.115-2.62,10.001-5.58,14.671-8.879l31.128,31.146c3.119,3.119,7.22,4.671,11.302,4.671c4.083,0,8.183-1.552,11.305-4.671   c6.239-6.239,6.239-16.349,0-22.588l-30.271-30.29c3.297-4.012,6.239-8.309,9.002-12.729l39.098,16.597   c2.031,0.874,4.152,1.284,6.221,1.284c6.223,0,12.142-3.655,14.726-9.734c3.442-8.13-0.338-17.507-8.469-20.948l-38.418-16.313   c1.712-5.776,2.94-11.748,3.763-17.845H706.41z M560.72,408.896c-48.206,0-87.41-39.222-87.41-87.428   c0-48.189,39.204-87.411,87.41-87.411c48.208,0,87.43,39.222,87.43,87.411C648.149,369.675,608.928,408.896,560.72,408.896z" fill="#4D4D4D"/></g></svg>